<svg width="16" height="19" viewBox="0 0 16 19" fill="none" xmlns="http://www.w3.org/2000/svg">
<path d="M15.3758 14.2834C15.0983 14.9233 14.7698 15.5124 14.3892 16.0539C13.8704 16.7922 13.4456 17.3032 13.1183 17.587C12.6108 18.0528 12.0671 18.2914 11.4849 18.3049C11.0669 18.3049 10.5628 18.1862 9.9761 17.9454C9.38742 17.7057 8.84644 17.587 8.35178 17.587C7.83299 17.587 7.2766 17.7057 6.68146 17.9454C6.08542 18.1862 5.60526 18.3117 5.23815 18.3241C4.67983 18.3479 4.12332 18.1025 3.56784 17.587C3.21329 17.2784 2.76983 16.7492 2.23859 15.9997C1.6686 15.1992 1.19999 14.271 0.832877 13.2128C0.439708 12.0698 0.242615 10.9629 0.242615 9.89134C0.242615 8.66387 0.508352 7.60519 1.04062 6.71802C1.45893 6.00542 2.01544 5.44329 2.71195 5.03063C3.40846 4.61796 4.16104 4.40768 4.97151 4.39422C5.41497 4.39422 5.99651 4.53114 6.71918 4.80021C7.43982 5.0702 7.90254 5.20711 8.10541 5.20711C8.25708 5.20711 8.77111 5.04702 9.64251 4.72786C10.4666 4.43187 11.1621 4.30932 11.7318 4.35759C13.2757 4.48196 14.4356 5.08942 15.207 6.18382C13.8262 7.01887 13.1432 8.18846 13.1568 9.68886C13.1692 10.8575 13.594 11.8301 14.4288 12.6023C14.8072 12.9607 15.2297 13.2376 15.6997 13.4344C15.5978 13.7294 15.4902 14.0121 15.3758 14.2834ZM11.8349 0.376129C11.8349 1.29214 11.4996 2.14741 10.8313 2.93905C10.0248 3.88015 9.04931 4.42396 7.99146 4.33815C7.97798 4.22825 7.97016 4.11259 7.97016 3.99106C7.97016 3.11169 8.3537 2.17059 9.03481 1.40112C9.37485 1.01152 9.80732 0.687571 10.3318 0.429153C10.8551 0.174591 11.3501 0.0338123 11.8156 0.00970459C11.8292 0.132161 11.8349 0.254625 11.8349 0.376117V0.376129Z" fill="white"/>
</svg>
