<svg xmlns="http://www.w3.org/2000/svg" viewBox="0 0 52 44" width="52" height="44" fill="none">
  <path fill="none" stroke="#5AE4BF" stroke-width="1.5" d="M18.7,41.7c1.1,0.2,2.2,0.3,3.3,0.3c11,0,19.8-8.8,20-19.7c-1.1-0.2-2.2-0.3-3.4-0.3C27.7,22,18.9,30.8,18.7,41.7z"></path>
  <path fill="none" stroke="#5AE4BF" stroke-width="1.5" d="M4.7,11.9C8.2,17.9,14.6,22,22,22c7.4,0,13.8-4,17.3-10.1C35.9,6,29.4,2,22,2C14.6,2,8.2,6,4.7,11.9z"></path>
  <path fill="none" stroke="#5AE4BF" stroke-width="1.5" d="M10.4,5.7c5.1,3.6,8.3,9.6,8.3,16.3c0,6.7-3.3,12.7-8.3,16.3C5.3,34.7,2,28.7,2,22C2,15.3,5.3,9.4,10.4,5.7z"></path>
</svg>