<svg width="34" height="34" viewBox="0 0 34 34" fill="none" xmlns="http://www.w3.org/2000/svg">
<rect x="0.5" y="0.5" width="33" height="33" rx="16.5" fill="#2D4EA2" fill-opacity="0.042"/>
<path d="M25.1008 17.6265C25.2138 16.1915 24.942 14.7523 24.3133 13.4573C23.2728 14.446 22.0428 15.2136 20.6975 15.714C20.8057 17.0418 20.7457 18.3779 20.5192 19.6907C22.1562 19.2784 23.7074 18.5795 25.1008 17.6265ZM19.195 19.9582C19.4612 18.6857 19.5542 17.3831 19.4717 16.0857C18.6783 16.2748 17.8508 16.3748 17 16.3748C16.1492 16.3748 15.3217 16.2748 14.5283 16.0857C14.4477 17.383 14.5407 18.6854 14.805 19.9582C16.2598 20.1811 17.7402 20.1811 19.195 19.9582ZM15.1433 21.2657C16.3768 21.4116 17.6232 21.4116 18.8567 21.2657C18.4327 22.6303 17.8069 23.9238 17 25.1032C16.1931 23.9238 15.5672 22.6303 15.1433 21.2657ZM13.4808 19.6915C13.253 18.3783 13.1931 17.0415 13.3025 15.7132C11.9569 15.2129 10.7266 14.4453 9.68583 13.4565C9.05734 14.7518 8.78578 16.1913 8.89916 17.6265C10.2926 18.5795 11.8438 19.2784 13.4808 19.6907V19.6915ZM24.7967 19.2932C24.3759 20.7189 23.5726 22.0022 22.4741 23.0037C21.3755 24.0052 20.0235 24.6866 18.565 24.974C19.2954 23.7459 19.8529 22.4228 20.2217 21.0423C21.8296 20.7053 23.3738 20.1152 24.7967 19.294V19.2932ZM9.20333 19.2932C10.605 20.1023 12.145 20.6998 13.7783 21.0423C14.1471 22.4228 14.7046 23.7459 15.435 24.974C13.9766 24.6867 12.6247 24.0054 11.5261 23.0041C10.4275 22.0027 9.6242 20.7196 9.20333 19.294V19.2932ZM18.565 9.02482C20.6298 9.43066 22.4567 10.6213 23.6617 12.3465C22.7722 13.2451 21.7104 13.9549 20.54 14.4332C20.2246 12.523 19.5548 10.6887 18.565 9.02482ZM17 8.89648C18.2162 10.6732 19.0152 12.7018 19.3375 14.8307C18.59 15.0223 17.8067 15.1248 17 15.1248C16.1933 15.1248 15.41 15.0232 14.6625 14.8307C14.9847 12.7018 15.7838 10.6732 17 8.89648ZM15.435 9.02482C14.4452 10.6887 13.7753 12.523 13.46 14.4332C12.2895 13.9549 11.2278 13.2452 10.3383 12.3465C11.5434 10.6216 13.3703 9.4312 15.435 9.02565V9.02482Z" fill="#2D4EA2"/>
<rect x="0.5" y="0.5" width="33" height="33" rx="16.5" stroke="#E4E7EC"/>
</svg>
