<svg width="20" height="20" viewBox="0 0 20 20" fill="none" xmlns="http://www.w3.org/2000/svg">
<path d="M20 9.99994C20 15.5228 15.5229 20 10.0001 20C4.47715 20 0 15.5228 0 9.99994C0 4.47712 4.47715 0 10.0001 0C15.5228 0 20 4.47712 20 9.99994Z" fill="#6C7382"/>
<path d="M15.2969 7.26719L14.3922 6.35781C14.3193 6.29801 14.2268 6.26745 14.1327 6.27208C14.0385 6.2767 13.9495 6.31618 13.8828 6.38283C13.8162 6.44948 13.7767 6.53854 13.7721 6.63268C13.7675 6.72683 13.798 6.81933 13.8578 6.89219L14.7672 7.79688C14.8015 7.83139 14.8287 7.87234 14.8472 7.91739C14.8657 7.96243 14.8752 8.01068 14.875 8.05937V11.875C14.875 11.9745 14.8355 12.0698 14.7652 12.1402C14.6948 12.2105 14.5995 12.25 14.5 12.25C14.4005 12.25 14.3052 12.2105 14.2348 12.1402C14.1645 12.0698 14.125 11.9745 14.125 11.875V10C14.1238 9.70201 14.0048 9.41658 13.7941 9.20587C13.5834 8.99516 13.298 8.87623 13 8.875H12.25V6.625C12.2488 6.32701 12.1298 6.04158 11.9191 5.83087C11.7084 5.62016 11.423 5.50123 11.125 5.5H7.375C7.07701 5.50123 6.79158 5.62016 6.58087 5.83087C6.37016 6.04158 6.25123 6.32701 6.25 6.625V13.75H5.5C5.40054 13.75 5.30516 13.7895 5.23483 13.8598C5.16451 13.9302 5.125 14.0255 5.125 14.125C5.125 14.2245 5.16451 14.3198 5.23483 14.3902C5.30516 14.4605 5.40054 14.5 5.5 14.5H13C13.0995 14.5 13.1948 14.4605 13.2652 14.3902C13.3355 14.3198 13.375 14.2245 13.375 14.125C13.375 14.0255 13.3355 13.9302 13.2652 13.8598C13.1948 13.7895 13.0995 13.75 13 13.75H12.25V9.625H13C13.0995 9.625 13.1948 9.66451 13.2652 9.73484C13.3355 9.80516 13.375 9.90054 13.375 10V11.875C13.375 12.1734 13.4935 12.4595 13.7045 12.6705C13.9155 12.8815 14.2016 13 14.5 13C14.7984 13 15.0845 12.8815 15.2955 12.6705C15.5065 12.4595 15.625 12.1734 15.625 11.875V8.05937C15.6253 7.91221 15.5964 7.76646 15.5401 7.6305C15.4838 7.49454 15.4011 7.37107 15.2969 7.26719ZM10.75 9.625H7.75C7.65054 9.625 7.55516 9.58549 7.48484 9.51516C7.41451 9.44484 7.375 9.34946 7.375 9.25C7.375 9.15054 7.41451 9.05516 7.48484 8.98484C7.55516 8.91451 7.65054 8.875 7.75 8.875H10.75C10.8495 8.875 10.9448 8.91451 11.0152 8.98484C11.0855 9.05516 11.125 9.15054 11.125 9.25C11.125 9.34946 11.0855 9.44484 11.0152 9.51516C10.9448 9.58549 10.8495 9.625 10.75 9.625Z" fill="white"/>
</svg>
