<svg width="16" height="16" viewBox="0 0 16 16" fill="none" xmlns="http://www.w3.org/2000/svg">
<path fill-rule="evenodd" clip-rule="evenodd" d="M8.8001 3.0001C8.8001 2.2269 9.4269 1.6001 10.2001 1.6001H13.0001C13.7733 1.6001 14.4001 2.2269 14.4001 3.0001V5.8001C14.4001 6.5733 13.7733 7.2001 13.0001 7.2001H10.2001C9.4269 7.2001 8.8001 6.5733 8.8001 5.8001V3.0001ZM10.2001 2.8001C10.0896 2.8001 10.0001 2.88964 10.0001 3.0001V5.8001C10.0001 5.91055 10.0896 6.0001 10.2001 6.0001H13.0001C13.1106 6.0001 13.2001 5.91055 13.2001 5.8001V3.0001C13.2001 2.88964 13.1106 2.8001 13.0001 2.8001H10.2001ZM3.0002 1.6002C2.227 1.6002 1.6002 2.227 1.6002 3.0002V5.8002C1.6002 6.57339 2.227 7.2002 3.0002 7.2002H5.8002C6.57339 7.2002 7.2002 6.57339 7.2002 5.8002V3.0002C7.2002 2.227 6.57339 1.6002 5.8002 1.6002H3.0002ZM2.8002 3.0002C2.8002 2.88974 2.88974 2.8002 3.0002 2.8002H5.8002C5.91065 2.8002 6.0002 2.88974 6.0002 3.0002V5.8002C6.0002 5.91065 5.91065 6.0002 5.8002 6.0002H3.0002C2.88974 6.0002 2.8002 5.91065 2.8002 5.8002V3.0002ZM3.0001 8.8001C2.2269 8.8001 1.6001 9.4269 1.6001 10.2001V13.0001C1.6001 13.7733 2.2269 14.4001 3.0001 14.4001H5.8001C6.5733 14.4001 7.2001 13.7733 7.2001 13.0001V10.2001C7.2001 9.4269 6.5733 8.8001 5.8001 8.8001H3.0001ZM2.8001 10.2001C2.8001 10.0896 2.88964 10.0001 3.0001 10.0001H5.8001C5.91055 10.0001 6.0001 10.0896 6.0001 10.2001V13.0001C6.0001 13.1106 5.91055 13.2001 5.8001 13.2001H3.0001C2.88964 13.2001 2.8001 13.1106 2.8001 13.0001V10.2001ZM4.39229 3.6001C3.95046 3.6001 3.59229 3.95827 3.59229 4.4001V4.4081C3.59229 4.84993 3.95046 5.2081 4.39229 5.2081H4.40029C4.84211 5.2081 5.20029 4.84993 5.20029 4.4081V4.4001C5.20029 3.95827 4.84211 3.6001 4.40029 3.6001H4.39229ZM11.5923 3.6001C11.1505 3.6001 10.7923 3.95827 10.7923 4.4001V4.4081C10.7923 4.84993 11.1505 5.2081 11.5923 5.2081H11.6003C12.0421 5.2081 12.4003 4.84993 12.4003 4.4081V4.4001C12.4003 3.95827 12.0421 3.6001 11.6003 3.6001H11.5923ZM4.39229 10.8001C3.95046 10.8001 3.59229 11.1583 3.59229 11.6001V11.6081C3.59229 12.0499 3.95046 12.4081 4.39229 12.4081H4.40029C4.84211 12.4081 5.20029 12.0499 5.20029 11.6081V11.6001C5.20029 11.1583 4.84211 10.8001 4.40029 10.8001H4.39229ZM11.5923 10.8001C11.1505 10.8001 10.7923 11.1583 10.7923 11.6001V11.6081C10.7923 12.0499 11.1505 12.4081 11.5923 12.4081H11.6003C12.0421 12.4081 12.4003 12.0499 12.4003 11.6081V11.6001C12.4003 11.1583 12.0421 10.8001 11.6003 10.8001H11.5923ZM8.79229 9.6001C8.79229 9.15827 9.15046 8.8001 9.59229 8.8001H9.60029C10.0421 8.8001 10.4003 9.15827 10.4003 9.6001V9.6081C10.4003 10.0499 10.0421 10.4081 9.60029 10.4081H9.59229C9.15046 10.4081 8.79229 10.0499 8.79229 9.6081V9.6001ZM13.5923 8.8001C13.1505 8.8001 12.7923 9.15827 12.7923 9.6001V9.6081C12.7923 10.0499 13.1505 10.4081 13.5923 10.4081H13.6003C14.0421 10.4081 14.4003 10.0499 14.4003 9.6081V9.6001C14.4003 9.15827 14.0421 8.8001 13.6003 8.8001H13.5923ZM12.7923 13.6001C12.7923 13.1583 13.1505 12.8001 13.5923 12.8001H13.6003C14.0421 12.8001 14.4003 13.1583 14.4003 13.6001V13.6081C14.4003 14.0499 14.0421 14.4081 13.6003 14.4081H13.5923C13.1505 14.4081 12.7923 14.0499 12.7923 13.6081V13.6001ZM9.59229 12.8001C9.15046 12.8001 8.79229 13.1583 8.79229 13.6001V13.6081C8.79229 14.0499 9.15046 14.4081 9.59229 14.4081H9.60029C10.0421 14.4081 10.4003 14.0499 10.4003 13.6081V13.6001C10.4003 13.1583 10.0421 12.8001 9.60029 12.8001H9.59229Z" fill="#74777C"/>
</svg>
