<svg width="16" height="16" viewBox="0 0 16 16" fill="none" xmlns="http://www.w3.org/2000/svg">
<path fill-rule="evenodd" clip-rule="evenodd" d="M8.8 3.00001C8.8 2.22681 9.4268 1.60001 10.2 1.60001H13C13.7732 1.60001 14.4 2.22681 14.4 3.00001V5.80001C14.4 6.5732 13.7732 7.20001 13 7.20001H10.2C9.4268 7.20001 8.8 6.5732 8.8 5.80001V3.00001ZM10.2 2.80001C10.0895 2.80001 10 2.88955 10 3.00001V5.80001C10 5.91046 10.0895 6.00001 10.2 6.00001H13C13.1105 6.00001 13.2 5.91046 13.2 5.80001V3.00001C13.2 2.88955 13.1105 2.80001 13 2.80001H10.2ZM2.99998 1.60001C2.22678 1.60001 1.59998 2.22681 1.59998 3.00001V5.80001C1.59998 6.57321 2.22678 7.20001 2.99998 7.20001H5.79998C6.57317 7.20001 7.19998 6.57321 7.19998 5.80001V3.00001C7.19998 2.22681 6.57317 1.60001 5.79998 1.60001H2.99998ZM2.79998 3.00001C2.79998 2.88956 2.88952 2.80001 2.99998 2.80001H5.79998C5.91043 2.80001 5.99998 2.88956 5.99998 3.00001V5.80001C5.99998 5.91047 5.91043 6.00001 5.79998 6.00001H2.99998C2.88952 6.00001 2.79998 5.91047 2.79998 5.80001V3.00001ZM3 8.80001C2.2268 8.80001 1.6 9.42681 1.6 10.2V13C1.6 13.7732 2.2268 14.4 3 14.4H5.8C6.5732 14.4 7.2 13.7732 7.2 13V10.2C7.2 9.42681 6.5732 8.80001 5.8 8.80001H3ZM2.8 10.2C2.8 10.0895 2.88954 10 3 10H5.8C5.91046 10 6 10.0895 6 10.2V13C6 13.1105 5.91046 13.2 5.8 13.2H3C2.88954 13.2 2.8 13.1105 2.8 13V10.2ZM4.39219 3.60001C3.95036 3.60001 3.59219 3.95818 3.59219 4.40001V4.40801C3.59219 4.84983 3.95036 5.20801 4.39219 5.20801H4.40019C4.84202 5.20801 5.20019 4.84983 5.20019 4.40801V4.40001C5.20019 3.95818 4.84202 3.60001 4.40019 3.60001H4.39219ZM11.5922 3.60001C11.1504 3.60001 10.7922 3.95818 10.7922 4.40001V4.40801C10.7922 4.84983 11.1504 5.20801 11.5922 5.20801H11.6002C12.042 5.20801 12.4002 4.84983 12.4002 4.40801V4.40001C12.4002 3.95818 12.042 3.60001 11.6002 3.60001H11.5922ZM4.39219 10.8C3.95036 10.8 3.59219 11.1582 3.59219 11.6V11.608C3.59219 12.0498 3.95036 12.408 4.39219 12.408H4.40019C4.84202 12.408 5.20019 12.0498 5.20019 11.608V11.6C5.20019 11.1582 4.84202 10.8 4.40019 10.8H4.39219ZM11.5922 10.8C11.1504 10.8 10.7922 11.1582 10.7922 11.6V11.608C10.7922 12.0498 11.1504 12.408 11.5922 12.408H11.6002C12.042 12.408 12.4002 12.0498 12.4002 11.608V11.6C12.4002 11.1582 12.042 10.8 11.6002 10.8H11.5922ZM8.79219 9.60001C8.79219 9.15818 9.15036 8.80001 9.59219 8.80001H9.60019C10.042 8.80001 10.4002 9.15818 10.4002 9.60001V9.60801C10.4002 10.0498 10.042 10.408 9.60019 10.408H9.59219C9.15036 10.408 8.79219 10.0498 8.79219 9.60801V9.60001ZM13.5922 8.80001C13.1504 8.80001 12.7922 9.15818 12.7922 9.60001V9.60801C12.7922 10.0498 13.1504 10.408 13.5922 10.408H13.6002C14.042 10.408 14.4002 10.0498 14.4002 9.60801V9.60001C14.4002 9.15818 14.042 8.80001 13.6002 8.80001H13.5922ZM12.7922 13.6C12.7922 13.1582 13.1504 12.8 13.5922 12.8H13.6002C14.042 12.8 14.4002 13.1582 14.4002 13.6V13.608C14.4002 14.0498 14.042 14.408 13.6002 14.408H13.5922C13.1504 14.408 12.7922 14.0498 12.7922 13.608V13.6ZM9.59219 12.8C9.15036 12.8 8.79219 13.1582 8.79219 13.6V13.608C8.79219 14.0498 9.15036 14.408 9.59219 14.408H9.60019C10.042 14.408 10.4002 14.0498 10.4002 13.608V13.6C10.4002 13.1582 10.042 12.8 9.60019 12.8H9.59219Z" fill="#9BA0CC"/>
</svg>
