<svg width="40" height="40" viewBox="0 0 40 40" fill="none" xmlns="http://www.w3.org/2000/svg">
<rect width="40" height="40" rx="20" fill="white" fill-opacity="0.12"/>
<path fill-rule="evenodd" clip-rule="evenodd" d="M20 13.25C21.213 13.25 22.415 13.296 23.605 13.385C24.3845 13.442 25.1174 13.7774 25.67 14.33C26.2227 14.8826 26.5581 15.6156 26.615 16.395C26.659 16.978 26.692 17.565 26.715 18.154L25.03 16.47C24.9614 16.3963 24.8786 16.3372 24.7866 16.2962C24.6946 16.2552 24.5953 16.2332 24.4946 16.2314C24.3938 16.2296 24.2938 16.2481 24.2004 16.2859C24.107 16.3236 24.0222 16.3797 23.951 16.451C23.8798 16.5222 23.8236 16.607 23.7859 16.7004C23.7482 16.7938 23.7297 16.8938 23.7314 16.9945C23.7332 17.0952 23.7553 17.1945 23.7962 17.2865C23.8372 17.3785 23.8963 17.4613 23.97 17.53L26.97 20.53C27.1107 20.6704 27.3013 20.7493 27.5 20.7493C27.6988 20.7493 27.8894 20.6704 28.03 20.53L31.03 17.53C31.1625 17.3878 31.2346 17.1998 31.2312 17.0055C31.2278 16.8112 31.1491 16.6258 31.0117 16.4884C30.8742 16.351 30.6889 16.2722 30.4946 16.2688C30.3003 16.2654 30.1122 16.3375 29.97 16.47L28.218 18.221C28.195 17.571 28.158 16.925 28.11 16.282C28.0259 15.145 27.5361 14.0762 26.73 13.27C25.9239 12.4639 24.855 11.9741 23.718 11.89C21.2429 11.7033 18.7572 11.7033 16.282 11.89C15.1451 11.9741 14.0762 12.4639 13.2701 13.27C12.4639 14.0762 11.9742 15.145 11.89 16.282C11.873 16.506 11.857 16.729 11.844 16.954C11.8364 17.0532 11.8486 17.1528 11.8799 17.2473C11.9111 17.3417 11.9609 17.4289 12.0262 17.5039C12.0915 17.5789 12.1711 17.6402 12.2603 17.6842C12.3495 17.7281 12.4466 17.7539 12.5458 17.76C12.6451 17.7661 12.7446 17.7524 12.8385 17.7197C12.9324 17.687 13.0189 17.6359 13.0929 17.5695C13.1669 17.503 13.227 17.4225 13.2696 17.3327C13.3122 17.2428 13.3365 17.1453 13.341 17.046C13.354 16.829 13.369 16.612 13.385 16.395C13.442 15.6156 13.7774 14.8826 14.33 14.33C14.8826 13.7774 15.6156 13.442 16.395 13.385C17.585 13.295 18.787 13.25 20 13.25ZM13.03 19.47C12.8894 19.3295 12.6988 19.2506 12.5 19.2506C12.3013 19.2506 12.1107 19.3295 11.97 19.47L8.97003 22.47C8.89634 22.5387 8.83724 22.6215 8.79625 22.7135C8.75526 22.8055 8.73322 22.9048 8.73144 23.0055C8.72966 23.1062 8.74819 23.2062 8.78591 23.2996C8.82363 23.393 8.87977 23.4778 8.95099 23.549C9.02221 23.6202 9.10705 23.6764 9.20043 23.7141C9.29382 23.7518 9.39385 23.7704 9.49455 23.7686C9.59526 23.7668 9.69457 23.7448 9.78657 23.7038C9.87857 23.6628 9.96137 23.6037 10.03 23.53L11.782 21.779C11.805 22.429 11.842 23.075 11.89 23.718C11.9742 24.8549 12.4639 25.9238 13.2701 26.73C14.0762 27.5361 15.1451 28.0258 16.282 28.11C18.7572 28.2968 21.2429 28.2968 23.718 28.11C24.855 28.0258 25.9239 27.5361 26.73 26.73C27.5361 25.9238 28.0259 24.8549 28.11 23.718C28.127 23.495 28.142 23.271 28.156 23.046C28.1651 22.8493 28.0964 22.6569 27.9649 22.5104C27.8333 22.3638 27.6494 22.2749 27.4528 22.2629C27.2563 22.2508 27.0629 22.3165 26.9143 22.4458C26.7658 22.5751 26.6741 22.7576 26.659 22.954C26.646 23.171 26.631 23.388 26.615 23.605C26.5581 24.3844 26.2227 25.1174 25.67 25.67C25.1174 26.2226 24.3845 26.558 23.605 26.615C21.2051 26.7959 18.795 26.7959 16.395 26.615C15.6156 26.558 14.8826 26.2226 14.33 25.67C13.7774 25.1174 13.442 24.3844 13.385 23.605C13.3409 23.0193 13.3075 22.4329 13.285 21.846L14.97 23.53C15.1122 23.6625 15.3003 23.7346 15.4946 23.7312C15.6889 23.7277 15.8742 23.649 16.0117 23.5116C16.1491 23.3742 16.2278 23.1888 16.2312 22.9945C16.2346 22.8002 16.1625 22.6122 16.03 22.47L13.03 19.47Z" fill="#9BA0CC"/>
</svg>
