<svg width="40" height="40" viewBox="0 0 40 40" fill="none" xmlns="http://www.w3.org/2000/svg">
<rect width="40" height="40" rx="20" fill="white" fill-opacity="0.12"/>
<path fill-rule="evenodd" clip-rule="evenodd" d="M29.53 14.97C29.6704 15.1107 29.7493 15.3013 29.7493 15.5C29.7493 15.6988 29.6704 15.8894 29.53 16.03L25.03 20.53C24.8878 20.6625 24.6998 20.7346 24.5055 20.7312C24.3112 20.7278 24.1258 20.6491 23.9884 20.5117C23.851 20.3742 23.7722 20.1889 23.7688 19.9946C23.7654 19.8003 23.8375 19.6122 23.97 19.47L27.19 16.25L15.5 16.25C15.3011 16.25 15.1103 16.171 14.9697 16.0304C14.829 15.8897 14.75 15.6989 14.75 15.5C14.75 15.3011 14.829 15.1104 14.9697 14.9697C15.1103 14.829 15.3011 14.75 15.5 14.75L27.19 14.75L23.97 11.53C23.8375 11.3879 23.7654 11.1998 23.7688 11.0055C23.7722 10.8112 23.851 10.6258 23.9884 10.4884C24.1258 10.351 24.3112 10.2723 24.5055 10.2689C24.6998 10.2654 24.8878 10.3375 25.03 10.47L29.53 14.97ZM25.25 24.5C25.25 24.6989 25.171 24.8897 25.0303 25.0304C24.8897 25.171 24.6989 25.25 24.5 25.25L12.81 25.25L16.03 28.47C16.1037 28.5387 16.1628 28.6215 16.2038 28.7135C16.2448 28.8055 16.2668 28.9048 16.2686 29.0055C16.2704 29.1062 16.2518 29.2062 16.2141 29.2996C16.1764 29.393 16.1202 29.4778 16.049 29.5491C15.9778 29.6203 15.893 29.6764 15.7996 29.7142C15.7062 29.7519 15.6062 29.7704 15.5055 29.7686C15.4048 29.7668 15.3054 29.7448 15.2134 29.7038C15.1214 29.6628 15.0386 29.6037 14.97 29.53L10.47 25.03C10.3295 24.8894 10.2506 24.6988 10.2506 24.5C10.2506 24.3013 10.3295 24.1107 10.47 23.97L14.97 19.47C15.0386 19.3963 15.1215 19.3372 15.2134 19.2962C15.3054 19.2553 15.4048 19.2332 15.5055 19.2314C15.6062 19.2297 15.7062 19.2482 15.7996 19.2859C15.893 19.3236 15.9778 19.3798 16.049 19.451C16.1202 19.5222 16.1764 19.607 16.2141 19.7004C16.2518 19.7938 16.2704 19.8938 16.2686 19.9946C16.2668 20.0953 16.2448 20.1946 16.2038 20.2866C16.1628 20.3786 16.1037 20.4614 16.03 20.53L12.81 23.75L24.5 23.75C24.6989 23.75 24.8897 23.829 25.0303 23.9697C25.171 24.1104 25.25 24.3011 25.25 24.5Z" fill="#9BA0CC"/>
</svg>
