<svg width="22" height="22" viewBox="0 0 22 22" fill="none" xmlns="http://www.w3.org/2000/svg">
<path d="M2.08365 5.15647C2.81085 4.51453 3.76613 4.125 4.8124 4.125H17.1874C18.2337 4.125 19.189 4.51453 19.9162 5.15647C19.7471 3.79982 18.5898 2.75 17.1874 2.75H4.8124C3.40996 2.75 2.25271 3.79982 2.08365 5.15647Z" fill="#9BA0CC"/>
<path d="M2.08365 7.90647C2.81085 7.26452 3.76613 6.875 4.8124 6.875H17.1874C18.2337 6.875 19.189 7.26453 19.9162 7.90647C19.7471 6.54982 18.5898 5.5 17.1874 5.5H4.8124C3.40996 5.5 2.25271 6.54982 2.08365 7.90647Z" fill="#9BA0CC"/>
<path d="M4.8125 8.25C3.29372 8.25 2.0625 9.48122 2.0625 11V16.5C2.0625 18.0188 3.29372 19.25 4.8125 19.25H17.1875C18.7063 19.25 19.9375 18.0188 19.9375 16.5V11C19.9375 9.48122 18.7063 8.25 17.1875 8.25H13.75C13.3703 8.25 13.0625 8.5578 13.0625 8.9375C13.0625 10.0766 12.1391 11 11 11C9.86091 11 8.9375 10.0766 8.9375 8.9375C8.9375 8.5578 8.6297 8.25 8.25 8.25H4.8125Z" fill="#9BA0CC"/>
</svg>
